<svg width="14" height="14" viewBox="0 0 14 14" fill="none" xmlns="http://www.w3.org/2000/svg">
<path d="M7.99942 0.000244141H5.99947H3.99951V2.0002H5.99947H7.99942H9.99938V0.000244141H7.99942Z" fill="white"/>
<path d="M12 1.99976H10V3.99971H12V1.99976Z" fill="white"/>
<path d="M12.0005 4V5.99996V7.99991V9.99987H14.0004V7.99991V5.99996V4H12.0005Z" fill="white"/>
<path d="M12 9.99976H10V11.9997H12V9.99976Z" fill="white"/>
<path d="M1.99996 0H0V1.99996V3.99991V5.99987H1.99996H3.99991H5.99987V3.99991H3.99991V1.99996H1.99996V0Z" fill="white"/>
<path d="M3.99898 9.99976H1.99902V11.9997H3.99898V9.99976Z" fill="white"/>
<path d="M5.99947 12H3.99951V14H5.99947H7.99942H9.99938V12H7.99942H5.99947Z" fill="white"/>
</svg>
